<svg xmlns="http://www.w3.org/2000/svg" version="1.1" xmlns:xlink="http://www.w3.org/1999/xlink" width="1500" height="325" viewBox="0 0 1500 325"><svg xml:space="preserve" width="1500" height="325" data-version="2" data-id="lg_Fg3uOlMJQrXRFT1qA9" viewBox="0 0 465 325" x="0" y="0"><rect width="100%" height="100%" fill="transparent"></rect><g transform="translate(25.63 275.14)"><linearGradient id="a" x1="0" x2="8.78" y1="0" y2="0" gradientUnits="objectBoundingBox"><stop offset="0%" stop-color="#ffa62e"></stop><stop offset="100%" stop-color="#f71b3d"></stop></linearGradient><path fill="url(#a)" d="M186.59 539.52q-7.93 0-12.67-4.66-4.74-4.65-4.74-13.74 0-4.08 1.12-8.47 1.12-4.39 3.74-8.7-1.47 1.31-2.78 1.31-2.23 0-2.23-3.54 0-2.54 1.08-4.08t2.08-2.47q1.69-1.46 4.31-2.96 2.62-1.5 6.16-2.51 3.54-1 7.93-1 10.32 0 15.52 5.82 5.19 5.81 5.19 16.13 0 6.08-1.77 11.32-1.77 5.23-5.04 9.16-3.27 3.93-7.82 6.16-4.54 2.23-10.08 2.23m2.69-8.62q3.85 0 7.59-1.77 3.73-1.77 6.16-5.66 2.42-3.89 2.42-10.13 0-5.85-2.23-9.35-2.23-3.51-5.66-5.08-3.43-1.58-7.2-1.58-2.85 0-5.12.73t-4.04 1.58q-2.01 3.08-3.78 7.5-1.77 4.43-1.77 9.36t1.93 8.12q1.92 3.2 5.04 4.74t6.66 1.54" transform="translate(-190.16 -514.11)"></path></g><rect width="42.27" height="50.82" x="-21.14" y="-25.41" fill="none" rx="0" ry="0" transform="translate(26.13 275.64)"></rect><g transform="translate(78.07 284.23)"><linearGradient id="b" x1="-.83" x2="6.26" y1="0" y2="0" gradientUnits="objectBoundingBox"><stop offset="0%" stop-color="#ffa62e"></stop><stop offset="100%" stop-color="#f71b3d"></stop></linearGradient><path fill="url(#b)" d="M220.62 539.37q-2.77 0-2.46-1.85.84-3.31 1.42-6.74.58-3.42.58-6.58 0-4.08-.5-5.97-.5-1.88-1.35-2.62-.85-.73-2.08-1.11-.54-.23-.96-.62-.42-.38-.42-1.08 0-1.07.84-2.38.85-1.31 2.43-2.27 1.58-.97 3.58-.97 2.62 0 3.62 1.81t1 4.74q0 1.92-.39 4.31-.38 2.39-.77 4.31l.16.08q1.23-4.08 3.04-7.55 1.81-3.46 4.39-5.62 2.58-2.15 5.97-2.15 3.46 0 5.46 2.34 2 2.35 2 6.9v1.69q2.24-4.7 5.43-7.85 3.2-3.16 7.74-3.16 3.7 0 5.78 2.46 2.08 2.47 2.08 6.16 0 1.47-.31 2.81-.31 1.35-.7 2.66-.3 1.23-.61 2.54t-.31 2.62q0 4.62 3.93 6.01.54.23.84.5.31.27.31.96t-.42 2q-.42 1.31-1.66 2.43-1.23 1.11-3.54 1.11-3 0-4.62-2.19-1.62-2.2-1.62-5.58 0-1.7.31-3.55.31-1.84.77-3.54.39-1.54.66-2.92.27-1.39.27-2.39 0-1.85-.89-2.7-.88-.84-2.35-.84-2.46 0-4.43 1.54-1.96 1.54-3.46 4t-2.58 5.39q.08.69.12 1.81.03 1.12.03 1.96 0 1.47-.19 3.08-.19 1.62-.73 2.7-.62 1.46-1.81 2.39-1.19.92-3.19.92-.85 0-1.62-.35-.77-.34-.77-1.11 0-.31.46-2.74.46-2.42.92-5.96.47-3.55.47-6.93 0-3.7-.77-5.13-.77-1.42-2.31-1.42-1.93 0-3.66 1.62-1.73 1.61-3.16 4.16-1.42 2.54-2.46 5.31-1.04 2.77-1.66 5.16v.84q0 2.85-1.58 4.7-1.57 1.85-4.27 1.85" transform="translate(-242.6 -523.2)"></path></g><rect width="55.51" height="32.34" x="-27.75" y="-16.17" fill="none" rx="0" ry="0" transform="translate(78.57 284.73)"></rect><g transform="translate(124.19 284.31)"><linearGradient id="c" x1="-3.11" x2="9.65" y1="0" y2="0" gradientUnits="objectBoundingBox"><stop offset="0%" stop-color="#ffa62e"></stop><stop offset="100%" stop-color="#f71b3d"></stop></linearGradient><path fill="url(#c)" d="M286.46 539.52q-5.32 0-8.51-2.88-3.2-2.89-3.2-8.51 0-2.62.73-5.08.73-2.47 1.97-4.62-1.24.77-1.85.77-.93 0-1.27-1.04-.35-1.04-.35-2.04 0-1.78.73-2.82.73-1.03 1.43-1.57 1.61-1.39 5.08-3.05 3.46-1.65 8.32-1.65 6.62 0 10.27 3.7 3.66 3.69 3.66 10.31 0 5.16-2.15 9.36-2.16 4.2-5.97 6.66-3.81 2.46-8.89 2.46m2.38-7.85q3.85 0 6.51-2.43 2.66-2.42 2.66-6.43 0-4.15-2.7-5.92-2.69-1.78-6.24-1.78-1.61 0-2.92.31-1.31.31-2.47.77-1.07 1.54-1.92 3.47-.85 1.92-.85 4.23 0 3.85 2.31 5.82 2.31 1.96 5.62 1.96" transform="translate(-288.73 -523.27)"></path></g><rect width="29.49" height="32.49" x="-14.74" y="-16.25" fill="none" rx="0" ry="0" transform="translate(124.69 284.81)"></rect><g transform="translate(154.22 281.54)"><linearGradient id="d" x1="-5.65" x2="12.27" y1="0" y2="0" gradientUnits="objectBoundingBox"><stop offset="0%" stop-color="#ffa62e"></stop><stop offset="100%" stop-color="#f71b3d"></stop></linearGradient><path fill="url(#d)" d="M319.64 539.52q-4.69 0-6.74-3.12-2.04-3.11-2.04-8.04 0-1.77.2-3.47.19-1.69.42-3.38.23-1.7.46-3.32.23-1.61.39-3.08-1.62.47-3.24.47-1.69 0-1.69-1.39 0-1.46 1.31-3.58t3.27-4.2q1.96-2.08 3.93-3.5 1.96-1.42 3.35-1.42 1.69 0 1.69 2.92 0 .77-.11 1.58-.12.81-.27 1.66 1.46-.31 2.96-.54 1.5-.23 2.89-.23 1.77 0 2.73.61.96.62.96 2.39 0 1.85-.88 3.69-.89 1.85-1.96 1.85-.24 0-.77-.07-.54-.08-1.31-.24-1-.23-2.54-.46t-3.7-.23q-.54 2.39-.96 4.89-.43 2.5-.43 4.51 0 4.46 2.24 6.08 2.23 1.62 6.46 1.62 1.31 0 1.85.42t.54 1.5q0 2.54-2.62 4.31-2.61 1.77-6.39 1.77" transform="translate(-318.75 -520.5)"></path></g><rect width="22.71" height="38.03" x="-11.36" y="-19.02" fill="none" rx="0" ry="0" transform="translate(154.72 282.04)"></rect><g transform="translate(182.29 284.35)"><linearGradient id="e" x1="-5.07" x2="8.37" y1="0" y2="0" gradientUnits="objectBoundingBox"><stop offset="0%" stop-color="#ffa62e"></stop><stop offset="100%" stop-color="#f71b3d"></stop></linearGradient><path fill="url(#e)" d="M345.28 539.52q-5.85 0-9.12-3.35-3.27-3.35-3.27-9.35 0-5.47 2.38-9.93 2.39-4.47 6.43-7.13 4.05-2.65 8.9-2.65 4.62 0 7.39 2.27 2.77 2.27 2.77 6.04 0 3.01-1.85 5.55t-4.93 4.04q-3.08 1.5-6.85 1.5-4.62 0-7.54-2.08.07 3.54 2.42 5.7t6.05 2.16q2.23 0 4.58-.81t4.04-2.2q1.08-.92 2-.92.77 0 1.27.5t.5 1.27q0 1.69-2.92 4.47-5.16 4.92-12.25 4.92m1.16-18.09q2.77 0 4.62-1.16 1.85-1.15 1.85-2.92 0-1.47-1.24-2.27-1.23-.81-3.38-.81-2.85 0-4.97 1.5-2.12 1.5-3.04 4.2 1.08.69 2.77 1.07 1.69.39 3.39.39" transform="translate(-346.82 -523.32)"></path></g><rect width="27.87" height="32.41" x="-13.94" y="-16.2" fill="none" rx="0" ry="0" transform="translate(182.79 284.85)"></rect><g transform="translate(214.78 284.35)"><linearGradient id="f" x1="-6.07" x2="7.37" y1="0" y2="0" gradientUnits="objectBoundingBox"><stop offset="0%" stop-color="#ffa62e"></stop><stop offset="100%" stop-color="#f71b3d"></stop></linearGradient><path fill="url(#f)" d="M377.78 539.52q-5.85 0-9.13-3.35-3.27-3.35-3.27-9.35 0-5.47 2.39-9.93 2.38-4.47 6.43-7.13 4.04-2.65 8.89-2.65 4.62 0 7.39 2.27 2.77 2.27 2.77 6.04 0 3.01-1.84 5.55-1.85 2.54-4.93 4.04-3.08 1.5-6.85 1.5-4.62 0-7.55-2.08.08 3.54 2.42 5.7 2.35 2.16 6.05 2.16 2.23 0 4.58-.81t4.04-2.2q1.08-.92 2.01-.92.77 0 1.27.5t.5 1.27q0 1.69-2.93 4.47-5.16 4.92-12.24 4.92m1.15-18.09q2.77 0 4.62-1.16 1.85-1.15 1.85-2.92 0-1.47-1.23-2.27-1.23-.81-3.39-.81-2.85 0-4.97 1.5-2.11 1.5-3.04 4.2 1.08.69 2.77 1.07 1.7.39 3.39.39" transform="translate(-379.31 -523.32)"></path></g><rect width="27.87" height="32.41" x="-13.94" y="-16.2" fill="none" rx="0" ry="0" transform="translate(215.28 284.85)"></rect><g transform="translate(271.22 275.26)"><linearGradient id="g" x1="-6.17" x2="4.43" y1="0" y2="0" gradientUnits="objectBoundingBox"><stop offset="0%" stop-color="#ffa62e"></stop><stop offset="100%" stop-color="#f71b3d"></stop></linearGradient><path fill="url(#g)" d="M431.6 539.45q-6.39 0-9.16-3.05-2.77-3.04-2.77-8.04 0-1.31.23-3.16t.61-4.46q.62-3.78.93-6.74.3-2.97.3-6.51 0-4.08-.23-6.62-1.31.77-1.92.77-1.23 0-1.23-2.77 0-2.16.96-3.66t3.19-2.81q2.24-1.39 5.66-2.39 3.43-1 7.36-1 6.39 0 9.7 2.93 3.31 2.92 3.31 7.7 0 3.08-1.31 5.7-1.31 2.61-3.69 4.62 9.62 1.54 9.62 11.08 0 5.16-2.93 9.4-2.92 4.23-7.93 6.62-4.85 2.39-10.7 2.39m3.08-8.55q3.47 0 6.28-.96 2.81-.97 4.5-2.81 1.69-1.85 1.69-4.32 0-3.15-2.23-4.46t-5.16-1.31q-1.23 0-3.08.23-.77.15-1.77.15-1.69 0-2.81-1.38-1.12-1.39-1.12-3.47 0-1.46 1.31-1.84 9.4-2.47 9.4-8.55 0-4.85-6.7-4.85-2.47 0-6.08.84 0 3.78-.39 7.9-.38 4.12-1.15 8.58-.47 3.08-.74 5.2t-.27 3.43q0 4.15 2.08 5.89 2.08 1.73 6.24 1.73" transform="translate(-435.76 -514.23)"></path></g><rect width="34.8" height="50.44" x="-17.4" y="-25.22" fill="none" rx="0" ry="0" transform="translate(271.72 275.76)"></rect><g transform="translate(307.49 284.35)"><linearGradient id="h" x1="-8.93" x2="4.51" y1="0" y2="0" gradientUnits="objectBoundingBox"><stop offset="0%" stop-color="#ffa62e"></stop><stop offset="100%" stop-color="#f71b3d"></stop></linearGradient><path fill="url(#h)" d="M470.49 539.52q-5.86 0-9.13-3.35-3.27-3.35-3.27-9.35 0-5.47 2.39-9.93 2.38-4.47 6.42-7.13 4.05-2.65 8.9-2.65 4.62 0 7.39 2.27 2.77 2.27 2.77 6.04 0 3.01-1.85 5.55-1.84 2.54-4.92 4.04t-6.86 1.5q-4.62 0-7.54-2.08.07 3.54 2.42 5.7t6.05 2.16q2.23 0 4.58-.81t4.04-2.2q1.08-.92 2-.92.77 0 1.27.5t.5 1.27q0 1.69-2.92 4.47-5.16 4.92-12.24 4.92m1.15-18.09q2.77 0 4.62-1.16 1.85-1.15 1.85-2.92 0-1.47-1.23-2.27-1.24-.81-3.39-.81-2.85 0-4.97 1.5-2.12 1.5-3.04 4.2 1.08.69 2.77 1.07 1.7.39 3.39.39" transform="translate(-472.02 -523.32)"></path></g><rect width="27.87" height="32.41" x="-13.94" y="-16.2" fill="none" rx="0" ry="0" transform="translate(307.99 284.85)"></rect><g transform="translate(343.02 284.31)"><linearGradient id="i" x1="-8.53" x2="2.88" y1="0" y2="0" gradientUnits="objectBoundingBox"><stop offset="0%" stop-color="#ffa62e"></stop><stop offset="100%" stop-color="#f71b3d"></stop></linearGradient><path fill="url(#i)" d="M500.44 539.52q-4.62 0-7.43-2.88-2.81-2.89-2.81-8.28 0-3.85 1.5-7.66t4.35-6.89q2.85-3.08 6.85-4.93 4.01-1.85 9.01-1.85 4.62 0 7.89 1.58 3.28 1.58 3.28 4.27 0 .69-.16 1.81-.15 1.12-.38 1.81-.23.62-.66 1.12-.42.5-1.11.5-.31 0-1.16-.23-.31 1.61-.46 3.15-.15 1.54-.15 3.08 0 2.93.88 5.2.89 2.27 3.5 2.81.7.16 1.12.46.42.31.42 1.31 0 .85-.42 2.16t-1.62 2.35q-1.19 1.04-3.42 1.04-3.01 0-4.62-2.2-1.62-2.19-1.62-6.27-2.08 3.77-5.27 6.16-3.2 2.38-7.51 2.38m2.46-8q3.08 0 5.43-1.93 2.35-1.92 3.66-4.85.85-1.85 1.31-4.04.46-2.2.61-4.35-1.31-.62-3-1-1.69-.39-3.54-.39-4.7 0-7.74 2.77t-3.04 6.93q0 3.08 1.69 4.97 1.7 1.89 4.62 1.89" transform="translate(-507.56 -523.27)"></path></g><rect width="34.72" height="32.49" x="-17.36" y="-16.25" fill="none" rx="0" ry="0" transform="translate(343.52 284.81)"></rect><g transform="translate(381.45 284.5)"><linearGradient id="j" x1="-9.29" x2="1.8" y1="0" y2="0" gradientUnits="objectBoundingBox"><stop offset="0%" stop-color="#ffa62e"></stop><stop offset="100%" stop-color="#f71b3d"></stop></linearGradient><path fill="url(#j)" d="M538.32 539.52q-3.85 0-5.97-2.23-2.11-2.23-2.11-6.47 0-3 .84-6.16.39-1.31.62-2.62.23-1.3.23-2.61 0-3.39-2.08-4.39-2-1.08-2-2.31t1.04-2.47q1.04-1.23 2.58-2.04t3.08-.81q4.39 0 4.39 7.17 0 2.31-.35 4.27-.34 1.96-.81 3.73-.3 1.24-.5 2.47-.19 1.23-.19 2.15 0 3.85 3.77 3.85 3.55 0 6.63-3.77t5.08-10.55l-.08-1.46q-.15-3.85 1.35-5.85 1.5-2.01 4.43-2.01 2.54 0 2.54 1.62 0 .54-.2 1.39-.19.84-.57 2-.77 2.85-1.31 6.04-.54 3.2-.54 5.89 0 3.01.92 4.97.93 1.96 3.47 2.66.69.07 1.11.42.43.35.43 1.43 0 1.84-1.54 3.61-1.54 1.78-4.47 1.78-5.62 0-5.62-7.94 0-1.38.23-4.15l-.15-.08q-4.85 12.47-14.25 12.47" transform="translate(-545.99 -523.47)"></path></g><rect width="36.27" height="32.11" x="-18.14" y="-16.05" fill="none" rx="0" ry="0" transform="translate(381.95 285)"></rect><g transform="translate(413.32 281.54)"><linearGradient id="k" x1="-16.1" x2="1.82" y1="0" y2="0" gradientUnits="objectBoundingBox"><stop offset="0%" stop-color="#ffa62e"></stop><stop offset="100%" stop-color="#f71b3d"></stop></linearGradient><path fill="url(#k)" d="M578.75 539.52q-4.7 0-6.74-3.12-2.04-3.11-2.04-8.04 0-1.77.19-3.47.19-1.69.43-3.38.23-1.7.46-3.32.23-1.61.38-3.08-1.61.47-3.23.47-1.7 0-1.7-1.39 0-1.46 1.31-3.58t3.28-4.2q1.96-2.08 3.92-3.5 1.97-1.42 3.35-1.42 1.7 0 1.7 2.92 0 .77-.12 1.58-.11.81-.27 1.66 1.46-.31 2.97-.54 1.5-.23 2.88-.23 1.77 0 2.74.61.96.62.96 2.39 0 1.85-.89 3.69-.88 1.85-1.96 1.85-.23 0-.77-.07-.54-.08-1.31-.24-1-.23-2.54-.46t-3.7-.23q-.53 2.39-.96 4.89-.42 2.5-.42 4.51 0 4.46 2.23 6.08t6.47 1.62q1.31 0 1.85.42t.54 1.5q0 2.54-2.62 4.31-2.62 1.77-6.39 1.77" transform="translate(-577.86 -520.5)"></path></g><rect width="22.72" height="38.03" x="-11.36" y="-19.02" fill="none" rx="0" ry="0" transform="translate(413.82 282.04)"></rect><g transform="translate(440.87 294.55)"><linearGradient id="l" x1="-11.71" x2=".25" y1="0" y2="0" gradientUnits="objectBoundingBox"><stop offset="0%" stop-color="#ffa62e"></stop><stop offset="100%" stop-color="#f71b3d"></stop></linearGradient><path fill="url(#l)" d="M594.46 559.77q-3.16 0-5.43-1.69-2.27-1.69-2.27-4.54 0-2.24 1.34-3.81 1.35-1.58 3.35-1.58.93 0 1.31.31.39.3.62.69.61 1 1.42 1.73.81.73 2.2.73 1.84 0 3.58-1.31 1.73-1.31 3.19-3 1.31-1.46 3.16-4.2 1.85-2.73 3.7-6.19-1.7 1.46-3.16 2.11-1.46.66-2.77.66-1.62 0-3.16-1.2-1.54-1.19-1.93-4.5-.23-2.54-.88-5.62-.66-3.08-1.62-5.97-.96-2.89-2.35-4.89-.54-.92-1.23-1.38-.69-.47-2-.62-.92-.08-1.19-.54-.27-.46-.27-1.46 0-2.77 1.54-4.47 1.54-1.69 4.15-1.69 3.16 0 4.55 2.42 1.38 2.43 2.38 5.89.39 1.39.81 3.66.43 2.27.77 4.89.35 2.62.5 5.01.08 1.69 1.93 1.69 2.46 0 4.7-1.54 2.23-1.54 3.65-4 1.43-2.47 1.43-5.16 0-1.54-.39-2.78-.38-1.23-1.31-2.15-.77-.93-1.23-1.5-.46-.58-.46-1.35 0-1.31 1.23-2.46 1.23-1.16 2.97-1.93 1.73-.77 3.04-.77 2.31 0 3.08 2.19.77 2.2.38 4.82-.46 3.62-1.85 8.54-1.38 4.93-3.58 10.32-2.19 5.39-5 10.44-2.81 5.04-5.97 8.81-2.69 3.31-6 5.35-3.32 2.04-6.93 2.04" transform="translate(-605.4 -533.51)"></path></g><rect width="37.29" height="52.51" x="-18.64" y="-26.25" fill="none" rx="0" ry="0" transform="translate(441.37 295.05)"></rect><path fill="#ffa62e" d="M236.015 179.869c-9.103-9.498-17.77-21.231-24.073-33.285-5.777-11.052-9.608-22.44-10.064-32.75-.488-11.069 2.848-20.917 11.592-28.008a37.306 34.123 0 0 1 8.74-5.244c1.39-.625 8.966-3.83 19.102-6.213l.925-.213V67.85h-.664a11.73 10.73 0 0 1-8.286-3.161l-.017-.023a11.758 10.755 0 0 1-3.45-7.597v-9.777a11.795 10.788 0 0 1 11.753-10.78h12.386c-2.089-.96-3.952-2.422-5.466-4.233-1.906-2.274-3.256-5.135-3.85-8.311-42.84 2.383-70.137 27.384-81.201 57.968-4.639 12.79-6.456 26.6-5.408 40.167 1.047 13.497 4.952 26.704 11.752 38.425 15.328 26.422 45.665 45.206 91.61 42.083 1.263-5.076 4.536-9.563 9.16-12.996 5.679-4.208 13.487-6.822 22.026-6.822 8.52 0 16.314 2.612 22.008 6.83l.017-.008c6.017 4.467 9.745 10.722 9.745 17.712 0 6.974-3.728 13.238-9.745 17.697-5.703 4.233-13.503 6.842-22.025 6.842-8.536 0-16.347-2.61-22.025-6.822-4.384-3.255-7.545-7.452-8.945-12.196-50.77 3.316-84.498-17.836-101.706-47.5-7.545-12.996-11.864-27.621-13.022-42.523-1.145-14.82.863-29.974 5.966-44.093 12.528-34.585 43.592-62.821 92.451-65.052h.328a19.822 18.131 0 0 1 2.87-4.876l-.01-.008c2.9-3.46 7.023-5.602 11.679-5.602 4.658 0 8.775 2.142 11.68 5.602 2.562 3.06 4.145 7.224 4.145 11.744 0 4.518-1.583 8.677-4.153 11.741-1.522 1.812-3.37 3.27-5.456 4.233h12.381c3.22 0 6.145 1.21 8.284 3.16l.013.021a11.717 10.717 0 0 1 3.448 7.6v9.777a11.786 10.78 0 0 1-3.448 7.62c-.136.116-.272.233-.413.345a11.733 10.732 0 0 1-7.884 2.815h-.661v6.307l.928.213c10.122 2.383 17.705 5.587 19.094 6.212a37.25 34.072 0 0 1 8.74 5.244c8.752 7.092 12.072 16.94 11.594 28.008-.458 10.31-4.28 21.7-10.067 32.75-6.375 12.199-15.175 24.065-24.4 33.626a5.547 5.074 0 0 1-4.172 1.717v.03h-39.303a5.575 5.1 0 0 1-4.503-2.09m71.553 37.212c3.447-2.55 5.584-6.006 5.584-9.754 0-3.732-2.137-7.18-5.584-9.739l.008-.008h-.008c-3.767-2.794-9.067-4.53-14.986-4.53-5.895 0-11.2 1.738-14.978 4.538-3.464 2.559-5.592 6.007-5.592 9.739 0 3.735 2.128 7.18 5.592 9.746 3.775 2.803 9.083 4.533 14.978 4.533 5.92 0 11.22-1.725 14.986-4.525M253.44 72.22a88.959 88.959 0 0 1 6.511-.498h.433a82.5 75.462 0 0 1 6.503.498v-4.37H253.44zm18.806-14.638h6.52a.55.503 0 0 0 .313-.08l.07-.075a.556.508 0 0 0 .169-.358v-9.777a.575.526 0 0 0-.161-.368.536.49 0 0 0-.395-.148h-37.189a.556.508 0 0 0-.394.155.578.528 0 0 0-.161.361v9.777c0 .147.05.27.152.366a.586.536 0 0 0 .403.147zm-17.737 98.86a5.578 5.102 0 0 1-.48 7.209 5.564 5.09 0 0 1-7.872-.437 113.462 103.782 0 0 1-14.823-19.623h-.016c-3.809-6.586-6.714-13.5-8.017-20.07a5.6 5.122 0 0 1 4.48-5.955 5.583 5.107 0 0 1 6.495 4.113c1.08 5.435 3.592 11.337 6.928 17.102v.015a102.381 93.646 0 0 0 13.305 17.646m-18.558-48.689a5.594 5.117 0 0 1-7.697 1.68 5.62 5.14 0 0 1-1.834-7.056 23.578 21.566 0 0 1 4.664-5.031 27.028 24.722 0 0 1 6.161-3.674 5.567 5.092 0 0 1 7.44 2.406 5.597 5.12 0 0 1-2.623 6.807 16.075 14.704 0 0 0-3.63 2.165 12.578 11.505 0 0 0-2.481 2.703m27.006-92.737c-.8-.96-1.798-1.547-2.792-1.547-.989 0-1.986.587-2.783 1.547l-.014-.007-.009.007c-1.12 1.334-1.808 3.28-1.808 5.524 0 2.216.706 4.172 1.833 5.521.798.953 1.795 1.548 2.784 1.548.991 0 1.991-.595 2.791-1.548 1.128-1.349 1.834-3.308 1.834-5.521 0-2.216-.706-4.174-1.836-5.524m23.692 50.019a5.611 5.132 0 0 1-7.498-.346zm-64.651 77.138c5.553 10.595 13.064 20.944 21.042 29.517h34.258c7.964-8.573 15.495-18.922 21.037-29.517 5.17-9.873 8.586-19.9 8.975-28.736.355-8.098-1.895-15.138-7.84-19.956a26.934 24.636 0 0 0-6.144-3.689c-1.239-.536-7.958-3.382-17.05-5.529-4.88-1.13-10.405-2.076-16.111-2.312-5.697.236-11.242 1.166-16.106 2.312-9.094 2.15-15.805 4.993-17.047 5.53a26.722 24.442 0 0 0-6.153 3.688c-5.944 4.818-8.183 11.858-7.83 19.956.386 8.837 3.808 18.863 8.969 28.736"></path></svg></svg>